<svg xmlns="http://www.w3.org/2000/svg" xlink="http://www.w3.org/1999/xlink" width="0" height="0" style="display:none;"><symbol viewBox="0 0 24 24" id="information-line"><path fill="none" d="M0 0h24v24H0z"/><path d="M12 22C6.477 22 2 17.523 2 12S6.477 2 12 2s10 4.477 10 10-4.477 10-10 10zm0-2a8 8 0 1 0 0-16 8 8 0 0 0 0 16zM11 7h2v2h-2V7zm0 4h2v6h-2v-6z"/></symbol><symbol viewBox="0 0 24 24" id="earth-line"><path fill="none" d="M0 0h24v24H0z"/><path d="M6.235 6.453a8 8 0 0 0 8.817 12.944c.115-.75-.137-1.47-.24-1.722-.23-.56-.988-1.517-2.253-2.844-.338-.355-.316-.628-.195-1.437l.013-.091c.082-.554.22-.882 2.085-1.178.948-.15 1.197.228 1.542.753l.116.172c.328.48.571.59.938.756.165.075.37.17.645.325.652.373.652.794.652 1.716v.105c0 .391-.038.735-.098 1.034a8.002 8.002 0 0 0-3.105-12.341c-.553.373-1.312.902-1.577 1.265-.135.185-.327 1.132-.95 1.21-.162.02-.381.006-.613-.009-.622-.04-1.472-.095-1.744.644-.173.468-.203 1.74.356 2.4.09.105.107.3.046.519-.08.287-.241.462-.292.498-.096-.056-.288-.279-.419-.43-.313-.365-.705-.82-1.211-.96-.184-.051-.386-.093-.583-.135-.549-.115-1.17-.246-1.315-.554-.106-.226-.105-.537-.105-.865 0-.417 0-.888-.204-1.345a1.276 1.276 0 0 0-.306-.43zM12 22C6.477 22 2 17.523 2 12S6.477 2 12 2s10 4.477 10 10-4.477 10-10 10z"/></symbol><symbol viewBox="0 0 24 24" id="bug-line"><path fill="none" d="M0 0h24v24H0z"/><path d="M13 19.9a5.002 5.002 0 0 0 4-4.9v-3a4.98 4.98 0 0 0-.415-2h-9.17A4.98 4.98 0 0 0 7 12v3a5.002 5.002 0 0 0 4 4.9V14h2v5.9zm-7.464-2.21A6.979 6.979 0 0 1 5 15H2v-2h3v-1c0-.643.087-1.265.249-1.856L3.036 8.866l1-1.732L6.056 8.3a7.01 7.01 0 0 1 .199-.3h11.49c.069.098.135.199.199.3l2.02-1.166 1 1.732-2.213 1.278c.162.59.249 1.213.249 1.856v1h3v2h-3c0 .953-.19 1.862-.536 2.69l2.5 1.444-1 1.732-2.526-1.458A6.986 6.986 0 0 1 12 22a6.986 6.986 0 0 1-5.438-2.592l-2.526 1.458-1-1.732 2.5-1.443zM8 6a4 4 0 1 1 8 0H8z"/></symbol><symbol viewBox="0 0 24 24" id="settings-4-line"><path fill="none" d="M0 0h24v24H0z"/><path d="M2 12c0-.865.11-1.703.316-2.504A3 3 0 0 0 4.99 4.867a9.99 9.99 0 0 1 4.335-2.505 3 3 0 0 0 5.348 0 9.99 9.99 0 0 1 4.335 2.505 3 3 0 0 0 2.675 4.63c.206.8.316 1.638.316 2.503 0 .865-.11 1.703-.316 2.504a3 3 0 0 0-2.675 4.629 9.99 9.99 0 0 1-4.335 2.505 3 3 0 0 0-5.348 0 9.99 9.99 0 0 1-4.335-2.505 3 3 0 0 0-2.675-4.63C2.11 13.704 2 12.866 2 12zm4.804 3c.63 1.091.81 2.346.564 3.524.408.29.842.541 1.297.75A4.993 4.993 0 0 1 12 18c1.26 0 2.438.471 3.335 1.274.455-.209.889-.46 1.297-.75A4.993 4.993 0 0 1 17.196 15a4.993 4.993 0 0 1 2.77-2.25 8.126 8.126 0 0 0 0-1.5A4.993 4.993 0 0 1 17.195 9a4.993 4.993 0 0 1-.564-3.524 7.989 7.989 0 0 0-1.297-.75A4.993 4.993 0 0 1 12 6a4.993 4.993 0 0 1-3.335-1.274 7.99 7.99 0 0 0-1.297.75A4.993 4.993 0 0 1 6.804 9a4.993 4.993 0 0 1-2.77 2.25 8.126 8.126 0 0 0 0 1.5A4.993 4.993 0 0 1 6.805 15zM12 15a3 3 0 1 1 0-6 3 3 0 0 1 0 6zm0-2a1 1 0 1 0 0-2 1 1 0 0 0 0 2z"/></symbol><symbol viewBox="0 0 24 24" id="shut-down-line"><path fill="none" d="M0 0h24v24H0z"/><path d="M6.265 3.807l1.147 1.639a8 8 0 1 0 9.176 0l1.147-1.639A9.988 9.988 0 0 1 22 12c0 5.523-4.477 10-10 10S2 17.523 2 12a9.988 9.988 0 0 1 4.265-8.193zM11 12V2h2v10h-2z"/></symbol><symbol viewBox="0 0 24 24" id="windows-fill"><path fill="none" d="M0 0H24V24H0z"/><path d="M3 5.479l7.377-1.016v7.127H3V5.48zm0 13.042l7.377 1.017v-7.04H3v6.023zm8.188 1.125L21 21v-8.502h-9.812v7.148zm0-15.292v7.236H21V3l-9.812 1.354z"/></symbol><symbol viewBox="0 0 24 24" id="send-plane-fill"><path fill="none" d="M0 0h24v24H0z"/><path d="M1.946 9.315c-.522-.174-.527-.455.01-.634l19.087-6.362c.529-.176.832.12.684.638l-5.454 19.086c-.15.529-.455.547-.679.045L12 14l6-8-8 6-8.054-2.685z"/></symbol><symbol viewBox="0 0 24 24" id="copyright-line"><path fill="none" d="M0 0h24v24H0z"/><path d="M12 2c5.52 0 10 4.48 10 10s-4.48 10-10 10S2 17.52 2 12 6.48 2 12 2zm0 2c-4.42 0-8 3.58-8 8s3.58 8 8 8 8-3.58 8-8-3.58-8-8-8zm0 3c1.82 0 3.413.973 4.288 2.428l-1.714 1.029A3 3 0 1 0 12 15a2.998 2.998 0 0 0 2.573-1.456l1.715 1.028A4.999 4.999 0 0 1 7 12c0-2.76 2.24-5 5-5z"/></symbol><symbol viewBox="0 0 24 24" id="fire-fill"><path fill="none" d="M0 0h24v24H0z"/><path d="M12 23a7.5 7.5 0 0 1-5.138-12.963C8.204 8.774 11.5 6.5 11 1.5c6 4 9 8 3 14 1 0 2.5 0 5-2.47.27.773.5 1.604.5 2.47A7.5 7.5 0 0 1 12 23z"/></symbol><symbol viewBox="0 0 24 24" id="menu-line"><path fill="none" d="M0 0h24v24H0z"/><path d="M3 4h18v2H3V4zm0 7h18v2H3v-2zm0 7h18v2H3v-2z"/></symbol><symbol viewBox="0 0 24 24" id="apple-fill"><path fill="none" d="M0 0h24v24H0z"/><path d="M11.624 7.222c-.876 0-2.232-.996-3.66-.96-1.884.024-3.612 1.092-4.584 2.784-1.956 3.396-.504 8.412 1.404 11.172.936 1.344 2.04 2.856 3.504 2.808 1.404-.06 1.932-.912 3.636-.912 1.692 0 2.172.912 3.66.876 1.512-.024 2.472-1.368 3.396-2.724 1.068-1.56 1.512-3.072 1.536-3.156-.036-.012-2.94-1.128-2.976-4.488-.024-2.808 2.292-4.152 2.4-4.212-1.32-1.932-3.348-2.148-4.056-2.196-1.848-.144-3.396 1.008-4.26 1.008zm3.12-2.832c.78-.936 1.296-2.244 1.152-3.54-1.116.048-2.46.744-3.264 1.68-.72.828-1.344 2.16-1.176 3.432 1.236.096 2.508-.636 3.288-1.572z"/></symbol><symbol viewBox="0 0 24 24" id="android-fill"><path fill="none" d="M0 0h24v24H0z"/><path d="M6.382 3.968A8.962 8.962 0 0 1 12 2c2.125 0 4.078.736 5.618 1.968l1.453-1.453 1.414 1.414-1.453 1.453A8.962 8.962 0 0 1 21 11v1H3v-1c0-2.125.736-4.078 1.968-5.618L3.515 3.93l1.414-1.414 1.453 1.453zM3 14h18v7a1 1 0 0 1-1 1H4a1 1 0 0 1-1-1v-7zm6-5a1 1 0 1 0 0-2 1 1 0 0 0 0 2zm6 0a1 1 0 1 0 0-2 1 1 0 0 0 0 2z"/></symbol><symbol viewBox="0 0 24 24" id="twitter-fill"><path fill="none" d="M0 0h24v24H0z"/><path d="M22.162 5.656a8.384 8.384 0 0 1-2.402.658A4.196 4.196 0 0 0 21.6 4c-.82.488-1.719.83-2.656 1.015a4.182 4.182 0 0 0-7.126 3.814 11.874 11.874 0 0 1-8.62-4.37 4.168 4.168 0 0 0-.566 2.103c0 1.45.738 2.731 1.86 3.481a4.168 4.168 0 0 1-1.894-.523v.052a4.185 4.185 0 0 0 3.355 4.101 4.21 4.21 0 0 1-1.89.072A4.185 4.185 0 0 0 7.97 16.65a8.394 8.394 0 0 1-6.191 1.732 11.83 11.83 0 0 0 6.41 1.88c7.693 0 11.9-6.373 11.9-11.9 0-.18-.005-.362-.013-.54a8.496 8.496 0 0 0 2.087-2.165z"/></symbol><symbol viewBox="0 0 24 24" id="facebook-fill"><path fill="none" d="M0 0h24v24H0z"/><path d="M14 13.5h2.5l1-4H14v-2c0-1.03 0-2 2-2h1.5V2.14c-.326-.043-1.557-.14-2.857-.14C11.928 2 10 3.657 10 6.7v2.8H7v4h3V22h4v-8.5z"/></symbol><symbol viewBox="0 0 24 24" id="stock-line"><path fill="none" d="M0 0h24v24H0z"/><path d="M8 5h3v9H8v3H6v-3H3V5h3V2h2v3zM5 7v5h4V7H5zm13 3h3v9h-3v3h-2v-3h-3v-9h3V7h2v3zm-3 2v5h4v-5h-4z"/></symbol></svg>